<?xml version="1.0" encoding="iso-8859-1"?>
<!-- Generator: Adobe Illustrator 16.0.0, SVG Export Plug-In . SVG Version: 6.00 Build 0)  -->
<!DOCTYPE svg PUBLIC "-//W3C//DTD SVG 1.1//EN" "http://www.w3.org/Graphics/SVG/1.1/DTD/svg11.dtd">
<svg version="1.1" id="Capa_1" xmlns="http://www.w3.org/2000/svg" xmlns:xlink="http://www.w3.org/1999/xlink" x="0px" y="0px"
	 width="106.048px" height="106.048px" viewBox="0 0 106.048 106.048" style="enable-background:new 0 0 106.048 106.048;"
	 xml:space="preserve">
<g>
	<path style="fill:#1eaaf1;" d="M84.838,0H21.209C9.543,0,0,9.543,0,21.209v63.629c0,11.666,9.543,21.21,21.209,21.21h63.628
		c11.667,0,21.21-9.544,21.21-21.21V21.209C106.048,9.543,96.505,0,84.838,0z M72.359,25.271c3.878,0,7.031,3.148,7.031,7.029
		c0,3.894-3.153,7.042-7.031,7.042c-3.895,0-7.053-3.148-7.053-7.042C65.307,28.415,68.465,25.271,72.359,25.271z M29.306,22.667
		c0.16,0,0.308,0.075,0.469,0.096c-0.06-0.389-0.236-0.738-0.236-1.145c0-4.619,3.749-8.362,8.378-8.362
		c4.624,0,8.368,3.744,8.368,8.362c0,0.407-0.171,0.756-0.228,1.145c0.153-0.021,0.303-0.096,0.466-0.096
		c2.121,0,3.835,1.644,3.835,3.653c0,2.02-1.709,3.653-3.835,3.653c-1.478,0-2.726-0.821-3.36-1.999
		c-1.447,1.199-3.223,2.004-5.245,2.004c-2.03,0-3.801-0.805-5.248-1.999c-0.637,1.178-1.882,1.999-3.363,1.999
		c-2.121,0-3.832-1.639-3.832-3.653C25.479,24.311,27.185,22.667,29.306,22.667z M85.103,65.368
		c-0.792,0.342-1.725-0.052-2.066-0.839l-3.282-13.701l-0.451,14.561h-0.01l1.305,24.078c0.083,1.45-1,2.703-2.449,2.807
		c-0.062,0.011-0.125,0.011-0.191,0.011c-1.373,0-2.532-1.057-2.61-2.444l-2.998-22.722L69.376,89.84
		c-0.113,1.388-1.263,2.444-2.636,2.444c-0.057,0-0.119,0-0.191-0.011c-1.439-0.108-2.531-1.356-2.438-2.807l1.284-24.078
		l-0.44-14.561c0,0-8.74,8.813-9.289,9.051c-0.953,0.404-2.051-0.041-2.46-0.994l-7.107-15.464l5.388,26.121H46.29l-1.608,21.375
		c0,1.021-0.841,1.875-1.864,1.875c-1.056,0-1.882-0.85-1.882-1.875l-1.603-21.375h-0.942h-0.945l-1.603,21.375
		c0,1.021-0.831,1.875-1.882,1.875c-1.023,0-1.864-0.85-1.864-1.875l-1.613-21.375h-5.191l5.383-26.121l-7.102,15.464
		c-0.401,0.953-1.509,1.398-2.465,0.994c-0.942-0.403-1.388-1.501-0.976-2.464c0,0,4.22-15.351,6.172-19.343
		c1.947-3.995,3.892-6.423,11.322-6.423h0.764h0.761c7.42,0,9.375,2.429,11.322,6.423c1.432,2.92,4.052,11.876,5.367,16.495
		c1.885-2.576,4.453-6.213,5.427-8.246c1.651-3.376,4.194-5.408,10.449-5.408h1.273c6.266,0,8.793,2.032,10.45,5.408
		c1.651,3.358,2.506,16.977,2.506,16.977C86.288,64.115,85.905,65.026,85.103,65.368z"/>
</g>
<g>
</g>
<g>
</g>
<g>
</g>
<g>
</g>
<g>
</g>
<g>
</g>
<g>
</g>
<g>
</g>
<g>
</g>
<g>
</g>
<g>
</g>
<g>
</g>
<g>
</g>
<g>
</g>
<g>
</g>
</svg>
